<?xml version="1.0" standalone="no"?><!DOCTYPE svg PUBLIC "-//W3C//DTD SVG 1.1//EN" "http://www.w3.org/Graphics/SVG/1.1/DTD/svg11.dtd"><svg height="1024" node-id="1" sillyvg="true" template-height="1024" template-width="1024" version="1.1" viewBox="0 0 1024 1024" width="1024" xmlns="http://www.w3.org/2000/svg" xmlns:xlink="http://www.w3.org/1999/xlink"><defs node-id="152"><clipPath id="clip-path" node-id="5"><path d="M 719.20 301.40 L 718.40 305.40 L 716.20 308.70 L 712.80 310.90 L 708.90 311.70 L 705.00 310.90 L 703.20 310.00 L 701.60 308.70 L 699.40 305.40 L 698.80 303.50 L 698.60 301.40 L 699.40 297.50 L 701.60 294.20 L 705.00 291.90 L 708.90 291.20 L 712.80 291.90 L 716.20 294.20 L 718.40 297.50 L 719.20 301.40 Z" fill="#000000" fill-rule="nonzero" node-id="155" stroke="none" target-height="20.5" target-width="20.600037" target-x="698.6" target-y="291.2"></path></clipPath></defs><path d="M 761.60 226.40 L 761.60 217.30 L 754.20 217.30 L 753.30 213.90 L 752.00 210.70 L 750.20 207.70 L 755.40 202.40 L 749.10 196.00 L 743.90 201.30 L 740.80 199.50 L 737.70 198.10 L 734.30 197.30 L 734.30 189.80 L 725.30 189.80 L 725.30 197.30 L 721.90 198.10 L 718.70 199.50 L 715.70 201.30 L 710.40 196.00 L 704.10 202.40 L 709.30 207.70 L 707.50 210.70 L 706.20 213.90 L 705.30 217.30 L 697.90 217.30 L 697.90 226.40 L 705.30 226.40 L 706.20 229.80 L 707.50 233.00 L 709.30 236.00 L 704.10 241.30 L 710.40 247.70 L 715.70 242.40 L 718.70 244.20 L 721.90 245.50 L 725.20 246.40 L 725.20 253.90 L 734.20 253.90 L 734.20 246.40 L 737.60 245.50 L 740.80 244.20 L 743.80 242.40 L 749.00 247.70 L 755.40 241.30 L 750.20 236.00 L 752.00 233.00 L 753.40 229.80 L 754.20 226.40 Z M 729.80 237.80 L 726.60 237.40 L 723.60 236.60 L 720.90 235.10 L 718.50 233.20 L 716.50 230.80 L 715.00 228.00 L 714.10 224.90 L 713.70 221.80 L 714.00 218.80 L 714.90 215.80 L 716.40 213.10 L 718.40 210.60 L 720.90 208.50 L 723.60 207.10 L 726.50 206.20 L 729.60 205.90 L 732.70 206.20 L 735.80 207.10 L 738.60 208.60 L 741.00 210.60 L 742.90 213.00 L 744.40 215.70 L 745.30 218.60 L 745.60 221.80 L 745.30 224.70 L 744.60 227.40 L 743.50 229.80 L 741.90 232.10 L 740.00 234.00 L 737.80 235.60 L 735.30 236.70 L 732.70 237.50 L 729.80 237.80 Z" fill="#ffffff" fill-rule="nonzero" node-id="159" stroke="#0c0426" stroke-linecap="butt" stroke-width="1" target-height="64.09999" target-width="63.69995" target-x="697.9" target-y="189.8"></path><path d="M 110.90 544.80 L 114.80 557.80 L 119.30 570.70 L 124.30 583.40 L 129.90 595.90 L 136.20 608.30 L 142.90 620.40 L 150.20 632.20 L 158.00 643.90 L 166.40 655.40 L 175.50 666.70 L 184.90 677.50 L 194.80 688.00 L 205.30 698.40 L 216.40 708.40 L 228.10 718.30 L 239.70 727.40 L 265.80 746.40 L 279.50 755.60 L 294.20 764.70 L 309.70 773.80 L 321.50 780.20 L 346.30 792.50 L 359.50 798.40 L 373.80 804.10 L 388.30 809.30 L 402.80 813.80 L 417.50 817.60 L 432.30 820.90 L 447.10 823.70 L 461.90 825.80 L 476.60 827.30 L 491.40 828.40 L 506.00 828.80 L 520.30 828.80 L 534.50 828.20 L 548.80 827.10 L 562.60 825.50 L 576.10 823.50 L 589.30 821.00 L 602.40 818.00 L 615.00 814.60 L 627.10 810.70 L 638.70 806.50 L 650.20 801.70 L 660.90 796.60 L 671.10 791.20 L 680.60 785.50 L 688.00 780.40 L 695.00 775.20 L 701.40 769.90 L 707.40 764.40 L 712.80 758.70 L 718.30 752.20 L 724.30 744.30 L 730.80 734.70 L 736.80 724.90 L 743.20 713.80 L 756.40 688.90 L 769.80 660.90 L 779.60 638.80 L 789.50 615.30 L 799.00 591.20 L 808.30 566.40 L 817.30 541.30 L 825.70 516.30 L 833.60 491.30 L 840.80 467.10 L 847.40 443.10 L 853.00 420.70 L 856.30 405.90 L 861.50 379.20 L 863.50 366.30 L 864.80 354.80 L 865.90 336.80 L 865.40 324.00 L 864.70 318.90 L 863.70 314.60 L 862.00 310.20 L 859.80 305.90 L 857.00 301.50 L 853.50 297.00 L 848.80 292.00 L 843.20 287.00 L 836.70 281.90 L 829.20 276.80 L 821.60 272.20 L 813.20 267.60 L 804.00 263.10 L 793.90 258.60 L 780.40 253.10 L 765.80 247.80 L 749.80 242.70 L 733.80 238.10 L 716.80 233.70 L 698.90 229.60 L 681.00 225.90 L 662.50 222.60 L 643.40 219.50 L 624.20 216.90 L 604.90 214.70 L 585.30 212.90 L 565.60 211.50 L 546.10 210.60 L 526.70 210.10 L 507.20 210.00 L 488.20 210.40 L 469.60 211.30 L 451.10 212.80 L 433.30 214.70 L 416.30 217.10 L 398.20 220.30 L 380.40 223.90 L 363.00 228.00 L 345.90 232.60 L 328.90 237.70 L 312.40 243.20 L 296.40 249.00 L 280.80 255.20 L 265.40 261.90 L 250.60 268.90 L 236.40 276.20 L 222.90 283.70 L 209.50 291.80 L 196.90 300.00 L 185.00 308.40 L 173.90 317.00 L 165.10 324.30 L 156.90 331.60 L 149.30 339.00 L 142.20 346.40 L 135.60 353.90 L 129.20 361.80 L 123.50 369.60 L 118.40 377.50 L 113.80 385.30 L 109.80 393.10 L 106.30 401.30 L 103.30 409.50 L 101.10 417.60 L 99.40 425.60 L 98.30 433.70 L 97.40 452.50 L 97.50 461.90 L 98.00 471.40 L 99.10 484.10 L 100.70 496.60 L 102.80 509.00 L 105.20 521.30 L 110.90 544.80 Z" fill="#8c71ff" fill-rule="nonzero" node-id="161" stroke="none" target-height="618.8" target-width="768.5" target-x="97.4" target-y="210"></path><g node-id="450"><path d="M 110.90 544.80 L 114.80 557.80 L 119.30 570.70 L 124.30 583.40 L 129.90 595.90 L 136.20 608.30 L 142.90 620.40 L 150.20 632.20 L 158.00 643.90 L 166.40 655.40 L 175.50 666.70 L 184.90 677.50 L 194.80 688.00 L 205.30 698.40 L 216.40 708.40 L 228.10 718.30 L 239.70 727.40 L 265.80 746.40 L 279.50 755.60 L 294.20 764.70 L 309.70 773.80 L 321.50 780.20 L 346.30 792.50 L 359.50 798.40 L 373.80 804.10 L 388.30 809.30 L 402.80 813.80 L 417.50 817.60 L 432.30 820.90 L 447.10 823.70 L 461.90 825.80 L 476.60 827.30 L 491.40 828.40 L 506.00 828.80 L 520.30 828.80 L 534.50 828.20 L 548.80 827.10 L 562.60 825.50 L 576.10 823.50 L 589.30 821.00 L 602.40 818.00 L 615.00 814.60 L 627.10 810.70 L 638.70 806.50 L 650.20 801.70 L 660.90 796.60 L 671.10 791.20 L 680.60 785.50 L 688.00 780.40 L 695.00 775.20 L 701.40 769.90 L 707.40 764.40 L 712.80 758.70 L 718.30 752.20 L 724.30 744.30 L 730.80 734.70 L 736.80 724.90 L 743.20 713.80 L 756.40 688.90 L 769.80 660.90 L 779.60 638.80 L 789.50 615.30 L 799.00 591.20 L 808.30 566.40 L 817.30 541.30 L 825.70 516.30 L 833.60 491.30 L 840.80 467.10 L 847.40 443.10 L 853.00 420.70 L 856.30 405.90 L 861.50 379.20 L 863.50 366.30 L 864.80 354.80 L 865.90 336.80 L 865.40 324.00 L 864.70 318.90 L 863.70 314.60 L 862.00 310.20 L 859.80 305.90 L 857.00 301.50 L 853.50 297.00 L 848.80 292.00 L 843.20 287.00 L 836.70 281.90 L 829.20 276.80 L 821.60 272.20 L 813.20 267.60 L 804.00 263.10 L 793.90 258.60 L 780.40 253.10 L 765.80 247.80 L 749.80 242.70 L 733.80 238.10 L 716.80 233.70 L 698.90 229.60 L 681.00 225.90 L 662.50 222.60 L 643.40 219.50 L 624.20 216.90 L 604.90 214.70 L 585.30 212.90 L 565.60 211.50 L 546.10 210.60 L 526.70 210.10 L 507.20 210.00 L 488.20 210.40 L 469.60 211.30 L 451.10 212.80 L 433.30 214.70 L 416.30 217.10 L 398.20 220.30 L 380.40 223.90 L 363.00 228.00 L 345.90 232.60 L 328.90 237.70 L 312.40 243.20 L 296.40 249.00 L 280.80 255.20 L 265.40 261.90 L 250.60 268.90 L 236.40 276.20 L 222.90 283.70 L 209.50 291.80 L 196.90 300.00 L 185.00 308.40 L 173.90 317.00 L 165.10 324.30 L 156.90 331.60 L 149.30 339.00 L 142.20 346.40 L 135.60 353.90 L 129.20 361.80 L 123.50 369.60 L 118.40 377.50 L 113.80 385.30 L 109.80 393.10 L 106.30 401.30 L 103.30 409.50 L 101.10 417.60 L 99.40 425.60 L 98.30 433.70 L 97.40 452.50 L 97.50 461.90 L 98.00 471.40 L 99.10 484.10 L 100.70 496.60 L 102.80 509.00 L 105.20 521.30 L 110.90 544.80 Z" fill="#ffffff" fill-opacity="0.86" fill-rule="nonzero" group-id="1" node-id="165" stroke="none" target-height="618.8" target-width="768.5" target-x="97.4" target-y="210"></path></g><path d="M 223.00 190.30 L 223.00 271.60" fill="none" node-id="168" stroke="#0c0426" stroke-linecap="round" stroke-width="1" target-height="81.3" target-width="0" target-x="223" target-y="190.3"></path><path d="M 223.00 363.80 L 223.00 731.20" fill="none" node-id="170" stroke="#0c0426" stroke-linecap="round" stroke-width="1" target-height="367.40002" target-width="0" target-x="223" target-y="363.8"></path><path d="M 415.70 190.30 L 415.70 236.40" fill="none" node-id="172" stroke="#0c0426" stroke-linecap="round" stroke-width="1" target-height="46.09999" target-width="0" target-x="415.7" target-y="190.3"></path><path d="M 415.70 270.20 L 415.70 731.20" fill="none" node-id="174" stroke="#0c0426" stroke-linecap="round" stroke-width="1" target-height="461" target-width="0" target-x="415.7" target-y="270.2"></path><path d="M 608.30 190.30 L 608.30 265.90" fill="none" node-id="176" stroke="#0c0426" stroke-linecap="round" stroke-width="1" target-height="75.59999" target-width="0" target-x="608.3" target-y="190.3"></path><path d="M 608.30 292.90 L 608.30 731.20" fill="none" node-id="178" stroke="#0c0426" stroke-linecap="round" stroke-width="1" target-height="438.30002" target-width="0" target-x="608.3" target-y="292.9"></path><path d="M 801.00 190.30 L 801.00 271.60" fill="none" node-id="180" stroke="#0c0426" stroke-linecap="round" stroke-width="1" target-height="81.3" target-width="0" target-x="801" target-y="190.3"></path><path d="M 801.00 661.20 L 801.00 742.50" fill="none" node-id="182" stroke="#0c0426" stroke-linecap="round" stroke-width="1" target-height="81.29999" target-width="0" target-x="801" target-y="661.2"></path><path d="M 801.00 307.90 L 801.00 568.00" fill="none" node-id="184" stroke="#0c0426" stroke-linecap="round" stroke-width="1" target-height="260.1" target-width="0" target-x="801" target-y="307.9"></path><path d="M 245.20 307.40 L 245.20 293.90 L 234.20 293.90 L 233.20 290.10 L 232.00 286.50 L 230.30 283.00 L 228.30 279.70 L 236.00 272.00 L 226.60 262.50 L 218.80 270.20 L 215.50 268.20 L 212.00 266.50 L 208.40 265.20 L 204.60 264.30 L 204.60 253.30 L 191.10 253.30 L 191.10 264.30 L 187.30 265.20 L 183.70 266.50 L 180.30 268.20 L 176.90 270.20 L 169.20 262.50 L 159.70 272.00 L 167.40 279.70 L 165.40 283.00 L 163.70 286.50 L 162.50 290.10 L 161.60 293.90 L 150.60 293.90 L 150.60 307.40 L 161.60 307.40 L 162.50 311.20 L 163.70 314.80 L 165.40 318.20 L 167.40 321.60 L 159.70 329.30 L 169.20 338.80 L 176.90 331.10 L 180.30 333.10 L 183.70 334.80 L 187.30 336.10 L 191.10 337.00 L 191.10 348.00 L 204.60 348.00 L 204.60 337.00 L 208.40 336.10 L 212.00 334.80 L 215.50 333.20 L 218.80 331.10 L 226.60 338.90 L 236.10 329.40 L 228.30 321.60 L 230.30 318.30 L 232.00 314.80 L 233.30 311.20 L 234.20 307.40 Z M 197.90 324.20 L 194.60 324.00 L 191.60 323.30 L 188.70 322.30 L 186.00 321.00 L 181.20 317.30 L 177.50 312.50 L 176.20 309.80 L 175.20 306.90 L 174.50 303.90 L 174.30 300.60 L 174.50 297.40 L 175.20 294.40 L 176.20 291.50 L 179.20 286.30 L 183.50 282.00 L 186.00 280.30 L 191.60 277.90 L 194.60 277.30 L 197.90 277.10 L 201.10 277.30 L 204.10 277.90 L 207.00 278.90 L 212.20 282.00 L 216.50 286.30 L 219.60 291.50 L 220.60 294.40 L 221.20 297.40 L 221.40 300.60 L 221.20 303.90 L 220.60 306.90 L 219.60 309.80 L 218.20 312.50 L 214.50 317.30 L 209.80 321.00 L 207.00 322.30 L 204.10 323.30 L 201.10 324.00 L 197.90 324.20 Z" fill="#ffffff" fill-rule="nonzero" node-id="186" stroke="#0c0426" stroke-linecap="butt" stroke-width="1" target-height="94.7" target-width="94.59999" target-x="150.6" target-y="253.3"></path><g node-id="451"><path d="M 218.50 300.60 L 765.90 300.60 L 765.90 704.50 L 218.50 704.50 Z" fill="#0c0426" fill-opacity="0.2" fill-rule="nonzero" group-id="2" node-id="190" stroke="none" target-height="403.9" target-width="547.4" target-x="218.5" target-y="300.6"></path></g><path d="M 238.00 285.00 L 784.20 285.00 L 784.20 686.20 L 238.00 686.20 Z" fill="#ffffff" fill-rule="nonzero" node-id="193" stroke="#0c0426" stroke-linecap="butt" stroke-width="1" target-height="401.2" target-width="546.2" target-x="238" target-y="285"></path><path d="M 238.00 285.00 L 328.00 285.00 L 328.00 686.20 L 238.00 686.20 Z" fill="#8c71ff" fill-rule="nonzero" node-id="195" stroke="#0c0426" stroke-linecap="butt" stroke-width="1" target-height="401.2" target-width="90" target-x="238" target-y="285"></path><path d="M 238.00 285.00 L 784.20 285.00 L 784.20 317.90 L 238.00 317.90 Z" fill="#0c0426" fill-rule="nonzero" node-id="197" stroke="none" target-height="32.899994" target-width="546.2" target-x="238" target-y="285"></path><path d="M 263.20 363.00 L 262.90 360.60 L 261.90 358.40 L 260.50 356.60 L 258.70 355.20 L 256.50 354.30 L 254.10 353.90 L 251.70 354.30 L 249.50 355.20 L 247.70 356.60 L 246.30 358.40 L 245.40 360.60 L 245.00 363.00 L 245.40 365.40 L 246.30 367.60 L 247.70 369.40 L 249.50 370.80 L 251.70 371.70 L 254.10 372.10 L 256.50 371.70 L 258.70 370.80 L 260.50 369.40 L 261.90 367.60 L 262.90 365.40 L 263.20 363.00 Z" fill="#ffffff" fill-rule="nonzero" node-id="199" stroke="#0c0426" stroke-linecap="round" stroke-width="1" target-height="18.200012" target-width="18.200012" target-x="245" target-y="353.9"></path><path d="M 270.70 363.70 L 315.30 363.70" fill="none" node-id="201" stroke="#0c0426" stroke-linecap="round" stroke-width="1" target-height="0" target-width="44.599976" target-x="270.7" target-y="363.7"></path><path d="M 259.70 387.70 L 304.30 387.70" fill="none" node-id="203" stroke="#0c0426" stroke-linecap="round" stroke-width="1" target-height="0" target-width="44.599976" target-x="259.7" target-y="387.7"></path><path d="M 259.70 404.00 L 304.30 404.00" fill="none" node-id="205" stroke="#0c0426" stroke-linecap="round" stroke-width="1" target-height="0" target-width="44.599976" target-x="259.7" target-y="404"></path><path d="M 263.20 434.40 L 262.90 432.00 L 261.90 429.80 L 260.50 428.00 L 258.70 426.60 L 256.50 425.60 L 254.10 425.30 L 251.70 425.60 L 249.50 426.60 L 247.70 428.00 L 246.30 429.80 L 245.40 432.00 L 245.00 434.40 L 245.40 436.80 L 246.30 439.00 L 247.70 440.80 L 249.50 442.20 L 251.70 443.10 L 254.10 443.50 L 256.50 443.10 L 258.70 442.20 L 260.50 440.80 L 261.90 439.00 L 262.90 436.80 L 263.20 434.40 Z" fill="#ffffff" fill-rule="nonzero" node-id="207" stroke="#0c0426" stroke-linecap="round" stroke-width="1" target-height="18.200012" target-width="18.200012" target-x="245" target-y="425.3"></path><path d="M 270.70 435.10 L 315.30 435.10" fill="none" node-id="209" stroke="#0c0426" stroke-linecap="round" stroke-width="1" target-height="0" target-width="44.599976" target-x="270.7" target-y="435.1"></path><path d="M 263.20 476.00 L 262.90 473.60 L 261.90 471.40 L 260.50 469.60 L 258.70 468.20 L 256.50 467.30 L 254.10 466.90 L 251.70 467.30 L 249.50 468.20 L 247.70 469.60 L 246.30 471.40 L 245.40 473.60 L 245.00 476.00 L 245.40 478.40 L 246.30 480.60 L 247.70 482.40 L 249.50 483.80 L 251.70 484.70 L 254.10 485.10 L 256.50 484.70 L 258.70 483.80 L 260.50 482.40 L 261.90 480.60 L 262.90 478.40 L 263.20 476.00 Z" fill="#ffffff" fill-rule="nonzero" node-id="211" stroke="#0c0426" stroke-linecap="round" stroke-width="1" target-height="18.200012" target-width="18.200012" target-x="245" target-y="466.9"></path><path d="M 270.70 476.70 L 315.30 476.70" fill="none" node-id="213" stroke="#0c0426" stroke-linecap="round" stroke-width="1" target-height="0" target-width="44.599976" target-x="270.7" target-y="476.7"></path><path d="M 263.20 517.50 L 262.90 515.10 L 261.90 512.90 L 260.50 511.10 L 258.70 509.70 L 256.50 508.80 L 254.10 508.50 L 251.70 508.80 L 249.50 509.70 L 247.70 511.10 L 246.30 512.90 L 245.40 515.10 L 245.00 517.50 L 245.40 519.90 L 246.30 522.10 L 247.70 523.90 L 249.50 525.40 L 251.70 526.30 L 254.10 526.60 L 256.50 526.30 L 258.70 525.40 L 260.50 523.90 L 261.90 522.10 L 262.90 519.90 L 263.20 517.50 Z" fill="#ffffff" fill-rule="nonzero" node-id="215" stroke="#0c0426" stroke-linecap="round" stroke-width="1" target-height="18.099976" target-width="18.200012" target-x="245" target-y="508.5"></path><path d="M 270.70 518.30 L 315.30 518.30" fill="none" node-id="217" stroke="#0c0426" stroke-linecap="round" stroke-width="1" target-height="0" target-width="44.599976" target-x="270.7" target-y="518.3"></path><path d="M 263.20 559.10 L 262.90 556.70 L 261.90 554.50 L 260.50 552.70 L 258.70 551.30 L 256.50 550.30 L 254.10 550.00 L 251.70 550.30 L 249.50 551.30 L 247.70 552.70 L 246.30 554.50 L 245.40 556.70 L 245.00 559.10 L 245.40 561.50 L 246.30 563.70 L 247.70 565.50 L 249.50 566.90 L 251.70 567.80 L 254.10 568.20 L 256.50 567.80 L 258.70 566.90 L 260.50 565.50 L 261.90 563.70 L 262.90 561.50 L 263.20 559.10 Z" fill="#ffffff" fill-rule="nonzero" node-id="219" stroke="#0c0426" stroke-linecap="round" stroke-width="1" target-height="18.200012" target-width="18.200012" target-x="245" target-y="550"></path><path d="M 270.70 559.80 L 315.30 559.80" fill="none" node-id="221" stroke="#0c0426" stroke-linecap="round" stroke-width="1" target-height="0" target-width="44.599976" target-x="270.7" target-y="559.8"></path><path d="M 250.00 615.40 L 316.50 615.40" fill="none" node-id="223" stroke="#0c0426" stroke-linecap="round" stroke-width="1" target-height="0" target-width="66.5" target-x="250" target-y="615.4"></path><path d="M 250.00 627.30 L 316.50 627.30" fill="none" node-id="225" stroke="#0c0426" stroke-linecap="round" stroke-width="1" target-height="0" target-width="66.5" target-x="250" target-y="627.3"></path><path d="M 250.00 639.30 L 316.50 639.30" fill="none" node-id="227" stroke="#0c0426" stroke-linecap="round" stroke-width="1" target-height="0" target-width="66.5" target-x="250" target-y="639.3"></path><path d="M 250.00 651.20 L 316.50 651.20" fill="none" node-id="229" stroke="#0c0426" stroke-linecap="round" stroke-width="1" target-height="0" target-width="66.5" target-x="250" target-y="651.2"></path><path d="M 267.40 292.80 L 288.50 292.80" fill="none" node-id="231" stroke="#ffffff" stroke-linecap="round" stroke-width="1" target-height="0" target-width="21.100006" target-x="267.4" target-y="292.8"></path><path d="M 267.40 300.80 L 288.50 300.80" fill="none" node-id="233" stroke="#ffffff" stroke-linecap="round" stroke-width="1" target-height="0" target-width="21.100006" target-x="267.4" target-y="300.8"></path><path d="M 267.40 308.70 L 288.50 308.70" fill="none" node-id="235" stroke="#ffffff" stroke-linecap="round" stroke-width="1" target-height="0" target-width="21.100006" target-x="267.4" target-y="308.7"></path><path d="M 136.10 567.90 L 140.10 568.90 L 150.60 569.50 L 148.20 562.30 L 145.60 558.40 L 141.90 554.40 L 137.50 551.50 L 134.40 550.60 L 131.60 551.00 L 129.20 552.60 L 128.30 553.70 L 127.20 556.40 L 127.40 559.30 L 128.10 561.20 L 129.30 563.00 L 132.40 565.80 L 136.10 567.90 Z" fill="#0c0426" fill-rule="nonzero" node-id="237" stroke="none" target-height="18.900024" target-width="23.40001" target-x="127.2" target-y="550.6"></path><path d="M 139.60 597.60 L 143.60 597.60 L 148.10 596.80 L 153.90 595.40 L 156.40 603.20 L 159.40 610.80 L 163.40 619.50 L 161.70 617.10 L 160.30 615.60 L 156.00 612.40 L 151.00 610.00 L 146.90 609.20 L 144.00 609.80 L 141.70 611.50 L 140.30 614.00 L 140.00 615.40 L 140.30 618.30 L 142.10 621.30 L 143.70 622.60 L 145.50 623.70 L 149.60 625.20 L 153.70 625.70 L 156.40 625.40 L 165.40 623.50 L 174.80 642.60 L 177.30 648.10 L 174.30 644.50 L 170.10 641.40 L 165.10 639.00 L 160.90 638.20 L 158.10 638.70 L 155.70 640.40 L 154.30 642.90 L 154.00 644.40 L 154.40 647.20 L 156.20 650.20 L 157.80 651.60 L 159.60 652.70 L 163.60 654.20 L 167.70 654.70 L 170.30 654.50 L 179.10 652.60 L 181.30 658.30 L 183.60 666.10 L 186.30 678.60 L 183.60 672.90 L 180.60 669.30 L 176.50 665.70 L 171.70 663.30 L 170.10 662.90 L 167.20 663.00 L 164.60 664.30 L 162.80 666.60 L 162.30 668.00 L 162.20 670.80 L 163.60 674.00 L 164.90 675.70 L 166.60 677.00 L 170.30 679.10 L 172.20 679.80 L 176.00 680.30 L 186.60 679.80 L 190.30 702.30 L 194.20 702.30 L 191.50 687.00 L 189.60 678.30 L 197.60 674.50 L 200.60 677.00 L 209.30 682.00 L 200.30 702.30 L 204.40 702.30 L 212.70 682.50 L 218.70 683.50 L 223.10 683.80 L 227.00 683.60 L 230.90 682.30 L 232.80 681.30 L 236.00 678.50 L 237.10 676.80 L 237.60 675.40 L 237.70 672.60 L 236.60 669.90 L 234.60 667.90 L 233.30 667.20 L 230.30 666.90 L 226.30 668.00 L 223.80 669.30 L 219.40 672.50 L 216.20 675.90 L 213.30 680.90 L 218.30 666.00 L 221.20 652.20 L 230.00 654.80 L 232.70 655.30 L 236.80 655.10 L 240.90 653.90 L 242.80 653.00 L 244.50 651.70 L 245.80 650.20 L 246.90 647.50 L 246.90 644.70 L 246.40 643.30 L 244.70 641.00 L 242.10 639.70 L 239.00 639.40 L 233.80 640.80 L 228.90 643.30 L 225.20 646.20 L 221.40 651.00 L 224.70 622.00 L 230.30 623.90 L 234.80 625.00 L 238.70 625.30 L 240.60 625.10 L 244.80 623.90 L 246.70 623.00 L 248.30 621.70 L 249.70 620.10 L 250.80 617.50 L 250.70 614.60 L 250.20 613.30 L 248.50 611.00 L 246.00 609.60 L 242.80 609.40 L 237.70 610.70 L 232.80 613.20 L 229.10 616.10 L 224.60 621.80 L 226.10 610.00 L 227.50 602.20 L 229.50 594.60 L 235.00 596.40 L 241.80 597.80 L 243.60 597.90 L 247.70 597.20 L 251.60 595.50 L 253.30 594.30 L 255.30 591.40 L 255.80 588.60 L 255.20 585.80 L 253.50 583.50 L 252.30 582.70 L 249.40 582.00 L 245.20 582.40 L 240.00 584.50 L 235.60 587.30 L 234.00 588.70 L 229.50 594.40 L 229.70 593.50 L 233.50 583.70 L 235.80 578.90 L 240.00 571.60 L 245.80 574.20 L 249.80 575.60 L 253.40 576.30 L 257.50 576.00 L 259.70 575.60 L 263.40 573.80 L 264.90 572.40 L 265.90 571.20 L 266.90 568.40 L 266.60 565.30 L 265.10 562.80 L 264.00 561.80 L 261.20 560.70 L 257.00 560.70 L 254.30 561.30 L 249.20 563.20 L 245.20 565.70 L 241.50 569.40 L 247.20 561.00 L 254.20 552.20 L 263.40 551.50 L 266.10 550.90 L 270.00 549.30 L 273.40 546.70 L 275.90 543.30 L 276.60 541.40 L 276.80 540.00 L 276.30 537.10 L 275.60 535.90 L 273.50 533.90 L 270.80 532.90 L 269.40 532.90 L 266.30 533.80 L 264.10 535.20 L 260.00 538.90 L 258.30 541.00 L 255.90 545.00 L 253.90 552.20 L 246.80 560.70 L 243.00 565.90 L 239.00 571.90 L 235.30 578.10 L 230.70 587.80 L 228.80 593.00 L 228.70 586.10 L 227.50 581.60 L 225.20 576.60 L 221.90 572.40 L 219.30 570.70 L 216.40 570.10 L 213.70 570.90 L 212.40 571.70 L 210.60 573.90 L 209.90 576.70 L 210.00 578.80 L 210.50 580.80 L 211.50 582.70 L 214.00 586.20 L 215.50 587.60 L 218.80 589.70 L 223.00 591.60 L 228.60 593.60 L 226.40 601.50 L 224.70 609.50 L 223.30 619.00 L 223.20 616.00 L 222.80 613.90 L 221.00 609.00 L 218.20 604.20 L 215.20 601.20 L 212.40 600.10 L 209.50 600.20 L 207.00 601.60 L 205.90 602.60 L 204.70 605.20 L 204.50 608.70 L 205.10 610.70 L 206.00 612.60 L 208.60 616.00 L 211.70 618.70 L 214.10 620.00 L 222.70 623.30 L 219.10 650.50 L 218.60 645.80 L 216.80 640.90 L 214.00 636.10 L 210.90 633.20 L 208.20 632.00 L 205.30 632.20 L 202.70 633.50 L 201.70 634.50 L 200.40 637.10 L 200.30 640.60 L 200.80 642.60 L 201.80 644.50 L 204.30 648.00 L 207.40 650.60 L 209.70 651.80 L 218.10 655.10 L 215.70 665.00 L 209.90 680.90 L 210.70 674.60 L 210.40 671.10 L 209.70 667.80 L 208.60 664.50 L 207.00 661.50 L 206.60 658.50 L 205.10 656.10 L 202.70 654.40 L 199.90 653.90 L 198.40 654.10 L 195.80 655.40 L 193.00 658.60 L 190.60 663.60 L 189.20 668.60 L 188.90 670.70 L 189.30 676.50 L 185.20 661.30 L 180.10 648.10 L 188.90 645.50 L 191.40 644.40 L 193.20 643.30 L 196.20 640.40 L 198.60 636.90 L 199.30 634.90 L 199.40 631.40 L 198.30 628.70 L 196.20 626.70 L 193.50 625.80 L 192.00 625.80 L 189.20 626.70 L 186.00 629.40 L 182.80 633.90 L 180.60 638.80 L 180.10 640.80 L 179.50 646.90 L 177.00 641.40 L 166.30 621.00 L 172.00 619.40 L 178.30 616.90 L 179.80 616.00 L 182.90 613.10 L 185.30 609.60 L 186.00 607.60 L 186.10 604.10 L 185.00 601.40 L 182.90 599.40 L 180.20 598.50 L 178.70 598.50 L 175.90 599.40 L 172.70 602.10 L 169.50 606.70 L 167.30 611.50 L 166.80 613.50 L 166.20 620.60 L 160.90 610.00 L 157.80 602.70 L 155.20 595.30 L 160.80 593.70 L 167.30 591.20 L 168.80 590.30 L 171.80 587.40 L 174.20 583.90 L 174.90 581.90 L 175.00 578.40 L 174.00 575.70 L 171.80 573.70 L 169.10 572.80 L 167.70 572.80 L 164.90 573.70 L 161.60 576.40 L 158.40 581.00 L 156.30 585.80 L 155.80 587.80 L 155.10 595.00 L 154.80 594.20 L 152.50 583.80 L 151.80 578.60 L 151.30 570.20 L 157.50 569.10 L 161.60 568.10 L 165.00 566.70 L 168.30 564.20 L 169.80 562.70 L 172.00 559.10 L 172.50 557.10 L 172.50 555.60 L 171.70 552.80 L 169.80 550.60 L 167.20 549.40 L 165.80 549.20 L 162.90 549.80 L 159.40 552.20 L 157.50 554.10 L 154.30 558.60 L 152.30 562.80 L 151.20 568.00 L 151.40 557.80 L 152.30 546.70 L 159.60 541.00 L 161.50 539.00 L 163.80 535.50 L 165.30 531.50 L 165.60 529.40 L 165.50 527.30 L 165.00 525.30 L 163.50 522.80 L 161.10 521.20 L 158.30 520.70 L 155.50 521.40 L 154.30 522.20 L 152.30 524.70 L 151.20 527.00 L 149.80 532.40 L 149.60 535.00 L 149.80 539.70 L 152.00 546.90 L 150.90 557.80 L 150.50 564.30 L 150.50 571.50 L 150.90 578.70 L 152.30 589.30 L 153.60 594.70 L 149.70 589.00 L 148.30 587.50 L 144.00 584.30 L 139.00 581.90 L 134.90 581.20 L 132.00 581.70 L 129.70 583.40 L 128.20 585.90 L 128.00 587.40 L 128.30 590.20 L 130.20 593.30 L 133.60 595.80 L 135.60 596.60 L 139.60 597.60 Z" fill="#0c0426" fill-rule="nonzero" node-id="239" stroke="none" target-height="181.59998" target-width="148.79999" target-x="128" target-y="520.7"></path><path d="M 240.00 570.10 L 241.90 562.90 L 242.00 558.20 L 241.70 555.50 L 240.20 550.20 L 239.00 547.90 L 236.90 545.50 L 235.70 544.70 L 232.90 544.10 L 230.10 544.70 L 228.80 545.40 L 226.90 547.50 L 226.30 548.90 L 225.80 550.90 L 225.90 553.00 L 226.90 557.10 L 228.80 560.80 L 229.90 562.20 L 235.30 566.90 L 240.00 570.10 Z" fill="#0c0426" fill-rule="nonzero" node-id="241" stroke="none" target-height="26" target-width="16.199997" target-x="225.8" target-y="544.1"></path><path d="M 226.70 757.80 L 170.50 757.80 L 163.50 695.40 L 233.70 695.40 L 226.70 757.80 Z" fill="#ffffff" fill-rule="nonzero" node-id="243" stroke="#0c0426" stroke-linecap="round" stroke-width="1" target-height="62.399963" target-width="70.2" target-x="163.5" target-y="695.4"></path><path d="M 164.80 706.80 L 165.50 712.80 L 231.80 712.80 L 232.40 706.80 L 164.80 706.80 Z" fill="#0c0426" fill-rule="nonzero" node-id="245" stroke="none" target-height="6" target-width="67.59999" target-x="164.8" target-y="706.8"></path><path d="M 230.30 726.10 L 231.00 720.10 L 166.30 720.10 L 167.00 726.10 L 230.30 726.10 Z" fill="#0c0426" fill-rule="nonzero" node-id="247" stroke="none" target-height="6" target-width="64.7" target-x="166.3" target-y="720.1"></path><path d="M 793.50 757.80 L 942.00 757.80" fill="none" node-id="249" stroke="#0c0426" stroke-linecap="butt" stroke-width="1" target-height="0" target-width="148.5" target-x="793.5" target-y="757.8"></path><path d="M 281.50 757.80 L 775.90 757.80" fill="none" node-id="251" stroke="#0c0426" stroke-linecap="butt" stroke-width="1" target-height="0" target-width="494.40002" target-x="281.5" target-y="757.8"></path><path d="M 82.00 757.80 L 253.80 757.80" fill="none" node-id="253" stroke="#0c0426" stroke-linecap="butt" stroke-width="1" target-height="0" target-width="171.8" target-x="82" target-y="757.8"></path><path d="M 767.50 302.20 L 770.40 305.60 L 773.30 302.20 L 767.50 302.20 Z" fill="#ffffff" fill-rule="nonzero" node-id="255" stroke="none" target-height="3.399994" target-width="5.799988" target-x="767.5" target-y="302.2"></path><path d="M 719.20 301.40 L 718.40 305.40 L 716.20 308.70 L 712.80 310.90 L 708.90 311.70 L 705.00 310.90 L 703.20 310.00 L 701.60 308.70 L 699.40 305.40 L 698.80 303.50 L 698.60 301.40 L 699.40 297.50 L 701.60 294.20 L 705.00 291.90 L 708.90 291.20 L 712.80 291.90 L 716.20 294.20 L 718.40 297.50 L 719.20 301.40 Z" fill="#ffffff" fill-rule="nonzero" node-id="257" stroke="none" target-height="20.5" target-width="20.600037" target-x="698.6" target-y="291.2"></path><g node-id="452"><g clip-path="url(#clip-path)" group-id="3" id="sillyvg_g_0" node-id="259"><path d="M 717.50 311.50 L 716.40 310.30 L 711.10 307.10 L 706.70 307.10 L 701.40 310.30 L 700.30 311.30 L 698.90 317.60 L 718.90 317.60 L 717.50 311.50 Z" fill="#8c71ff" fill-rule="nonzero" group-id="3" node-id="261" stroke="none" target-height="10.5" target-width="20" target-x="698.9" target-y="307.1"></path><path d="M 718.90 317.70 L 698.80 317.70 L 700.30 311.10 L 703.10 309.10 L 706.60 306.90 L 711.10 306.90 L 716.40 310.20 L 717.50 311.10 L 718.90 317.70 Z M 699.10 317.50 L 718.70 317.50 L 717.20 311.20 L 711.10 307.20 L 709.60 307.10 L 706.70 307.20 L 700.60 311.10 L 699.10 317.50 Z" fill="#0c0426" fill-rule="nonzero" group-id="3" node-id="263" stroke="none" target-height="10.800018" target-width="20.100037" target-x="698.8" target-y="306.9"></path><path d="M 703.10 317.60 L 702.80 315.90 L 703.10 317.60 Z" fill="#0c0426" fill-rule="nonzero" group-id="3" node-id="265" stroke="none" target-height="1.7000122" target-width="0.2999878" target-x="702.8" target-y="315.9"></path><path d="M 702.70 315.60 L 701.30 311.50 L 702.20 313.50 L 702.70 315.60 Z" fill="#0c0426" fill-rule="nonzero" group-id="3" node-id="267" stroke="none" target-height="4.100006" target-width="1.4000244" target-x="701.3" target-y="311.5"></path><path d="M 714.80 317.70 L 715.10 315.30 L 715.80 313.10 L 716.00 313.30 L 714.80 317.70 Z" fill="#0c0426" fill-rule="nonzero" group-id="3" node-id="269" stroke="none" target-height="4.600006" target-width="1.2000122" target-x="714.8" target-y="313.1"></path><path d="M 716.00 312.80 L 716.20 312.00 L 716.40 312.10 L 716.00 312.80 Z" fill="#0c0426" fill-rule="nonzero" group-id="3" node-id="271" stroke="none" target-height="0.7999878" target-width="0.4000244" target-x="716" target-y="312"></path><path d="M 708.80 317.70 L 708.60 312.50 L 708.90 312.50 L 708.80 317.70 Z" fill="#0c0426" fill-rule="nonzero" group-id="3" node-id="273" stroke="none" target-height="5.200012" target-width="0.30004883" target-x="708.6" target-y="312.5"></path><path d="M 708.80 312.10 L 708.60 311.20 L 708.90 311.20 L 708.80 312.10 Z" fill="#0c0426" fill-rule="nonzero" group-id="3" node-id="275" stroke="none" target-height="0.8999939" target-width="0.30004883" target-x="708.6" target-y="311.2"></path><path d="M 707.00 306.00 L 705.80 306.90 L 705.60 311.90 L 707.80 310.60 L 708.80 311.00 L 710.50 310.60 L 712.20 311.60 L 711.20 306.20 L 709.80 305.90 L 707.00 306.00 Z" fill="#8c71ff" fill-rule="nonzero" group-id="3" node-id="277" stroke="none" target-height="6" target-width="6.6000366" target-x="705.6" target-y="305.9"></path><path d="M 705.70 312.10 L 705.40 311.80 L 705.70 306.90 L 706.40 306.10 L 709.80 305.80 L 711.30 306.20 L 712.40 311.60 L 712.00 311.80 L 710.50 310.70 L 708.90 311.10 L 707.80 310.70 L 705.70 312.10 Z M 705.70 311.80 L 707.30 310.50 L 708.80 310.80 L 710.60 310.50 L 712.20 311.50 L 711.10 306.40 L 709.80 306.00 L 707.10 306.10 L 705.90 307.00 L 705.60 311.80 Z" fill="#0c0426" fill-rule="nonzero" group-id="3" node-id="279" stroke="none" target-height="6.3000183" target-width="7" target-x="705.4" target-y="305.8"></path><path d="M 706.60 305.00 L 706.80 307.80 L 708.10 310.20 L 708.80 311.00 L 709.50 310.10 L 710.70 307.40 L 710.90 305.10 Z" fill="#ffffff" fill-rule="nonzero" group-id="3" node-id="281" stroke="none" target-height="6" target-width="4.300049" target-x="706.6" target-y="305"></path><path d="M 708.80 311.10 L 708.00 310.30 L 706.70 307.90 L 706.50 304.90 L 710.90 305.00 L 710.70 307.50 L 709.60 310.20 L 708.80 311.10 Z M 706.80 305.10 L 706.90 307.70 L 708.80 310.80 L 710.60 307.30 L 710.70 305.20 Z" fill="#0c0426" fill-rule="nonzero" group-id="3" node-id="283" stroke="none" target-height="6.200012" target-width="4.4000244" target-x="706.5" target-y="304.9"></path><path d="M 710.80 306.30 L 710.90 305.10 L 706.60 305.00 L 706.60 306.00 L 709.00 307.30 L 710.80 306.30 Z" fill="#0c0426" fill-rule="nonzero" group-id="3" node-id="285" stroke="none" target-height="2.2999878" target-width="4.300049" target-x="706.6" target-y="305"></path><path d="M 709.00 307.40 L 706.60 306.10 L 706.50 304.90 L 710.90 305.00 L 710.80 306.40 L 709.00 307.40 Z M 706.80 305.90 L 709.00 307.20 L 710.70 306.20 L 710.70 305.20 L 706.70 305.10 L 706.80 305.90 Z" fill="#0c0426" fill-rule="nonzero" group-id="3" node-id="287" stroke="none" target-height="2.5" target-width="4.4000244" target-x="706.5" target-y="304.9"></path><path d="M 705.10 301.20 L 704.40 300.20 L 703.80 301.00 L 703.90 301.50 L 705.40 302.90 L 705.70 302.50 Z" fill="#ffffff" fill-rule="nonzero" group-id="3" node-id="289" stroke="none" target-height="2.6999817" target-width="1.9000244" target-x="703.8" target-y="300.2"></path><path d="M 705.40 303.00 L 703.80 301.40 L 703.70 300.90 L 704.20 300.10 L 704.60 300.10 L 705.10 300.60 L 705.80 302.50 L 705.40 303.00 Z M 704.40 300.30 L 704.10 300.60 L 704.00 301.20 L 705.40 302.80 L 705.50 302.50 L 704.50 300.40 Z" fill="#0c0426" fill-rule="nonzero" group-id="3" node-id="291" stroke="none" target-height="2.899994" target-width="2.0999756" target-x="703.7" target-y="300.1"></path><path d="M 712.10 301.20 L 712.90 300.20 L 713.50 300.90 L 713.30 301.50 L 711.80 303.00 L 711.50 302.60 Z" fill="#ffffff" fill-rule="nonzero" group-id="3" node-id="293" stroke="none" target-height="2.7999878" target-width="2" target-x="711.5" target-y="300.2"></path><path d="M 711.80 303.10 L 711.40 302.60 L 712.20 300.60 L 712.80 300.10 L 713.10 300.20 L 713.60 300.90 L 712.80 302.40 L 711.80 303.20 Z M 711.70 302.60 L 711.80 302.80 L 712.70 302.10 L 713.30 301.10 L 713.20 300.50 L 712.80 300.30 L 712.20 301.20 Z" fill="#0c0426" fill-rule="nonzero" group-id="3" node-id="295" stroke="none" target-height="3.100006" target-width="2.1999512" target-x="711.4" target-y="300.1"></path><path d="M 705.00 300.60 L 705.70 304.00 L 706.20 304.90 L 707.90 306.30 L 709.00 306.60 L 710.70 305.60 L 711.80 303.90 L 712.40 298.40 L 712.10 297.40 L 710.60 296.30 L 709.50 295.90 L 707.20 295.90 L 706.10 296.30 L 705.10 297.30 L 705.00 300.60 Z" fill="#ffffff" fill-rule="nonzero" group-id="3" node-id="297" stroke="none" target-height="10.700012" target-width="7.4000244" target-x="705" target-y="295.9"></path><path d="M 709.00 306.80 L 707.90 306.40 L 706.20 305.00 L 705.60 304.00 L 704.90 300.60 L 705.10 297.20 L 706.20 296.20 L 707.30 295.70 L 709.60 295.70 L 710.70 296.20 L 712.20 297.30 L 712.60 298.30 L 712.00 303.90 L 710.80 305.70 L 709.00 306.80 Z M 705.20 300.60 L 705.80 304.00 L 707.10 305.60 L 709.00 306.50 L 709.80 306.20 L 711.40 304.70 L 711.70 303.90 L 712.10 300.60 L 712.30 298.40 L 712.00 297.50 L 710.60 296.40 L 708.40 295.80 L 706.30 296.30 L 705.30 297.30 L 705.20 300.60 Z" fill="#0c0426" fill-rule="nonzero" group-id="3" node-id="299" stroke="none" target-height="11.099976" target-width="7.699951" target-x="704.9" target-y="295.7"></path><path d="M 708.70 302.60 L 708.10 302.40 L 708.10 301.90 L 708.50 302.30 L 709.70 301.80 L 709.30 301.30 L 709.20 299.30 L 709.50 301.30 L 710.00 301.80 L 709.80 302.20 L 708.70 302.60 Z" fill="#0c0426" fill-rule="nonzero" group-id="3" node-id="301" stroke="none" target-height="3.3000183" target-width="1.9000244" target-x="708.1" target-y="299.3"></path><path d="M 708.20 303.50 L 707.50 303.30 L 707.40 302.70 L 708.00 303.30 L 709.70 303.20 L 710.10 302.50 L 710.30 302.60 L 709.90 303.40 L 708.20 303.50 Z" fill="#0c0426" fill-rule="nonzero" group-id="3" node-id="303" stroke="none" target-height="1" target-width="2.8999634" target-x="707.4" target-y="302.5"></path><path d="M 707.60 300.30 L 707.30 300.70 L 707.00 300.60 L 707.30 300.00 L 707.60 300.30 Z" fill="#0c0426" fill-rule="nonzero" group-id="3" node-id="305" stroke="none" target-height="0.7000122" target-width="0.5999756" target-x="707" target-y="300"></path><path d="M 710.70 300.30 L 710.30 300.70 L 710.10 300.60 L 710.40 300.00 L 710.70 300.30 Z" fill="#0c0426" fill-rule="nonzero" group-id="3" node-id="307" stroke="none" target-height="0.7000122" target-width="0.6000366" target-x="710.1" target-y="300"></path><path d="M 706.10 299.30 L 706.00 299.20 L 706.90 298.70 L 708.10 298.90 L 706.10 299.30 Z" fill="#0c0426" fill-rule="nonzero" group-id="3" node-id="309" stroke="none" target-height="0.5999756" target-width="2.0999756" target-x="706" target-y="298.7"></path><path d="M 711.60 299.20 L 709.80 298.80 L 710.80 298.60 L 711.70 299.00 L 711.60 299.20 Z" fill="#0c0426" fill-rule="nonzero" group-id="3" node-id="311" stroke="none" target-height="0.6000061" target-width="1.9000244" target-x="709.8" target-y="298.6"></path><path d="M 706.50 301.60 L 706.30 301.40 L 706.50 301.20 L 706.50 301.60 Z M 706.50 301.30 L 706.50 301.40 Z" fill="#0c0426" fill-rule="nonzero" group-id="3" node-id="313" stroke="none" target-height="0.3999939" target-width="0.2000122" target-x="706.3" target-y="301.2"></path><path d="M 707.30 301.70 L 707.00 301.50 L 707.40 301.30 L 707.30 301.70 Z M 707.30 301.40 L 707.30 301.50 Z" fill="#0c0426" fill-rule="nonzero" group-id="3" node-id="315" stroke="none" target-height="0.4000244" target-width="0.4000244" target-x="707" target-y="301.3"></path><path d="M 706.80 302.20 L 706.60 301.80 L 707.00 301.90 L 706.80 302.20 Z M 706.80 301.90 L 706.90 301.90 Z" fill="#0c0426" fill-rule="nonzero" group-id="3" node-id="317" stroke="none" target-height="0.4000244" target-width="0.4000244" target-x="706.6" target-y="301.8"></path><path d="M 710.20 301.60 L 710.00 301.40 L 710.20 301.20 L 710.40 301.40 L 710.20 301.60 Z M 710.20 301.30 L 710.30 301.40 Z" fill="#0c0426" fill-rule="nonzero" group-id="3" node-id="319" stroke="none" target-height="0.3999939" target-width="0.4000244" target-x="710" target-y="301.2"></path><path d="M 711.00 301.70 L 710.80 301.50 L 711.10 301.30 L 711.00 301.70 Z M 711.00 301.40 L 711.00 301.60 L 711.00 301.40 Z" fill="#0c0426" fill-rule="nonzero" group-id="3" node-id="321" stroke="none" target-height="0.4000244" target-width="0.2999878" target-x="710.8" target-y="301.3"></path><path d="M 710.50 302.20 L 710.30 301.90 L 710.50 301.70 L 710.50 302.20 Z M 710.50 301.90 L 710.60 301.90 Z" fill="#0c0426" fill-rule="nonzero" group-id="3" node-id="323" stroke="none" target-height="0.5" target-width="0.2999878" target-x="710.3" target-y="301.7"></path><path d="M 705.50 297.60 L 705.10 301.20 L 704.40 297.20 L 704.30 296.10 L 704.60 294.90 L 705.60 294.80 L 706.10 295.20 L 707.10 294.00 L 708.10 293.50 L 708.80 293.70 L 708.80 294.10 L 710.90 293.70 L 712.90 293.70 L 713.70 294.00 L 714.10 294.50 L 714.30 295.70 L 714.00 296.60 L 712.70 297.40 L 713.30 298.40 L 712.80 299.20 L 712.20 301.20 L 712.20 299.00 L 711.10 297.30 L 710.90 297.60 L 710.20 297.80 L 708.90 297.40 L 707.20 296.40 L 705.50 297.60 Z" fill="#0c0426" fill-rule="nonzero" group-id="3" node-id="325" stroke="none" target-height="7.700012" target-width="10" target-x="704.3" target-y="293.5"></path><path d="M 705.10 301.30 L 704.50 299.40 L 704.20 297.20 L 704.20 296.10 L 704.50 294.80 L 705.00 294.60 L 705.90 295.00 L 706.70 294.00 L 708.10 293.40 L 709.00 293.90 L 712.90 293.60 L 713.70 293.90 L 714.20 294.60 L 714.30 295.70 L 714.00 296.70 L 712.80 297.40 L 713.40 298.40 L 712.80 299.30 L 712.30 301.20 L 712.00 301.20 L 712.00 299.00 L 711.20 297.70 L 710.20 297.90 L 708.60 297.50 L 707.20 296.60 L 705.70 297.70 L 705.20 301.30 Z M 705.10 294.90 L 704.50 295.30 L 704.40 296.10 L 705.00 300.30 L 705.30 297.50 L 707.00 296.30 L 708.80 297.30 L 710.10 297.60 L 710.70 297.50 L 711.00 297.10 L 712.10 298.80 L 712.10 300.20 L 712.40 299.10 L 713.00 298.40 L 712.30 297.20 L 713.70 296.40 L 714.00 295.60 L 713.90 294.70 L 713.40 294.00 L 712.70 293.70 L 708.70 294.10 L 708.50 293.60 L 707.90 293.50 L 707.00 293.90 L 705.80 295.20 L 705.10 294.90 Z" fill="#0c0426" fill-rule="nonzero" group-id="3" node-id="327" stroke="none" target-height="7.899994" target-width="10.099976" target-x="704.2" target-y="293.4"></path></g></g><path d="M 726.60 299.50 L 725.10 299.20 L 723.60 299.40 L 722.50 300.20 L 723.50 300.90 L 724.30 300.50 L 725.60 300.50 L 726.10 300.80 L 726.50 301.90 L 726.50 302.20 L 723.60 302.20 L 722.70 302.70 L 722.10 304.30 L 722.30 305.10 L 722.80 305.90 L 724.80 306.40 L 726.50 305.80 L 726.50 306.30 L 727.80 306.30 L 727.70 301.10 L 727.10 299.80 L 726.60 299.50 Z M 726.10 305.10 L 724.90 305.30 L 723.90 305.00 L 723.50 304.30 L 723.80 303.50 L 726.50 303.30 L 726.50 304.60 L 726.10 305.10 Z" fill="#ffffff" fill-rule="nonzero" node-id="330" stroke="none" target-height="7.1999817" target-width="5.700012" target-x="722.1" target-y="299.2"></path><path d="M 734.00 300.20 L 732.70 299.20 L 730.90 299.50 L 730.10 300.50 L 729.80 302.00 L 729.80 304.40 L 730.90 306.10 L 732.80 306.40 L 734.00 305.40 L 734.00 306.40 L 735.40 306.40 L 735.40 296.40 L 734.00 296.40 Z M 733.80 304.50 L 733.40 305.00 L 732.60 305.20 L 731.50 304.80 L 731.20 304.20 L 731.20 301.40 L 731.50 300.80 L 732.60 300.40 L 733.40 300.50 L 733.80 301.00 L 733.80 304.50 Z" fill="#ffffff" fill-rule="nonzero" node-id="332" stroke="none" target-height="10" target-width="5.6000366" target-x="729.8" target-y="296.4"></path><path d="M 746.20 299.50 L 744.30 299.30 L 742.90 300.50 L 742.50 299.90 L 741.40 299.20 L 740.20 299.20 L 738.90 300.20 L 738.90 299.20 L 737.50 299.20 L 737.50 306.30 L 738.90 306.30 L 739.00 301.30 L 739.30 300.80 L 740.30 300.50 L 741.30 300.90 L 741.60 301.40 L 741.70 306.30 L 743.10 306.30 L 743.20 301.40 L 743.40 300.90 L 744.40 300.50 L 745.50 300.90 L 745.80 301.40 L 745.90 306.30 L 747.30 306.30 L 747.30 302.00 L 747.00 300.40 L 746.20 299.50 Z" fill="#ffffff" fill-rule="nonzero" node-id="334" stroke="none" target-height="7.0999756" target-width="9.799988" target-x="737.5" target-y="299.2"></path><path d="M 749.40 299.30 L 750.80 299.30 L 750.80 306.30 L 749.40 306.30 Z" fill="#ffffff" fill-rule="nonzero" node-id="336" stroke="none" target-height="7" target-width="1.3999634" target-x="749.4" target-y="299.3"></path><path d="M 749.40 296.40 L 750.80 296.40 L 750.80 297.80 L 749.40 297.80 Z" fill="#ffffff" fill-rule="nonzero" node-id="338" stroke="none" target-height="1.3999939" target-width="1.3999634" target-x="749.4" target-y="296.4"></path><path d="M 758.00 299.90 L 757.20 299.30 L 756.20 299.20 L 755.10 299.50 L 754.30 300.30 L 754.30 299.30 L 752.90 299.30 L 752.90 306.40 L 754.30 306.40 L 754.40 301.30 L 754.70 300.90 L 755.80 300.50 L 756.90 300.90 L 757.20 301.50 L 757.20 306.40 L 758.60 306.40 L 758.60 302.00 L 758.00 299.90 Z" fill="#ffffff" fill-rule="nonzero" node-id="340" stroke="none" target-height="7.1999817" target-width="5.699951" target-x="752.9" target-y="299.2"></path><path d="M 615.10 364.50 L 618.10 364.50" fill="none" node-id="342" stroke="#0c0426" stroke-linecap="butt" stroke-width="1" target-height="0" target-width="3" target-x="615.1" target-y="364.5"></path><path d="M 624.30 364.50 L 719.90 364.50" fill="none" node-id="344" stroke="#0c0426" stroke-dasharray="6.17 6.17" stroke-linecap="butt" stroke-width="1" target-height="0" target-width="95.60004" target-x="624.3" target-y="364.5"></path><path d="M 723.00 364.50 L 726.00 364.50 L 726.00 367.50" fill="none" node-id="346" stroke="#0c0426" stroke-linecap="butt" stroke-width="1" target-height="3" target-width="3" target-x="723" target-y="364.5"></path><path d="M 726.00 372.80 L 726.00 412.60" fill="none" node-id="348" stroke="#0c0426" stroke-dasharray="5.3 5.3" stroke-linecap="butt" stroke-width="1" target-height="39.80002" target-width="0" target-x="726" target-y="372.8"></path><path d="M 726.00 415.20 L 726.00 418.20" fill="none" node-id="350" stroke="#0c0426" stroke-linecap="butt" stroke-width="1" target-height="3" target-width="0" target-x="726" target-y="415.2"></path><path d="M 398.20 418.20 L 398.20 415.20" fill="none" node-id="352" stroke="#0c0426" stroke-linecap="butt" stroke-width="1" target-height="3" target-width="0" target-x="398.2" target-y="415.2"></path><path d="M 398.20 409.90 L 398.20 370.20" fill="none" node-id="354" stroke="#0c0426" stroke-dasharray="5.3 5.3" stroke-linecap="butt" stroke-width="1" target-height="39.69998" target-width="0" target-x="398.2" target-y="370.2"></path><path d="M 398.20 367.50 L 398.20 364.50 L 401.30 364.50" fill="none" node-id="356" stroke="#0c0426" stroke-linecap="butt" stroke-width="1" target-height="3" target-width="3.0999756" target-x="398.2" target-y="364.5"></path><path d="M 407.60 364.50 L 505.60 364.50" fill="none" node-id="358" stroke="#0c0426" stroke-dasharray="6.33 6.33" stroke-linecap="butt" stroke-width="1" target-height="0" target-width="98" target-x="407.6" target-y="364.5"></path><path d="M 508.80 364.50 L 511.80 364.50" fill="none" node-id="360" stroke="#0c0426" stroke-linecap="butt" stroke-width="1" target-height="0" target-width="3" target-x="508.8" target-y="364.5"></path><path d="M 551.60 353.80 L 572.70 375.20" fill="none" node-id="362" stroke="#0c0426" stroke-linecap="round" stroke-width="2" target-height="21.400024" target-width="21.100037" target-x="551.6" target-y="353.8"></path><path d="M 572.70 353.80 L 551.60 375.20" fill="none" node-id="364" stroke="#0c0426" stroke-linecap="round" stroke-width="2" target-height="21.400024" target-width="21.100037" target-x="551.6" target-y="353.8"></path><path d="M 651.80 469.90 L 650.30 462.50 L 648.30 455.50 L 645.80 448.70 L 642.70 442.20 L 639.10 435.90 L 635.10 430.00 L 630.60 424.50 L 625.70 419.30 L 620.30 414.50 L 614.70 410.20 L 608.70 406.40 L 602.30 403.00 L 595.70 400.10 L 588.90 397.70 L 581.70 395.90 L 574.30 394.70 L 566.80 394.10 L 559.40 394.10 L 552.20 394.70 L 545.10 395.90 L 538.10 397.60 L 531.30 399.90 L 524.80 402.70 L 518.50 406.10 L 512.50 409.90 L 506.80 414.10 L 501.40 418.90 L 496.40 424.10 L 491.80 429.60 L 487.70 435.60 L 484.10 442.00 L 480.80 448.80 L 476.60 446.60 L 472.30 444.80 L 467.80 443.40 L 463.30 442.40 L 454.10 441.60 L 444.90 442.40 L 440.40 443.30 L 436.00 444.70 L 431.60 446.50 L 427.40 448.70 L 423.30 451.30 L 419.60 454.10 L 416.20 457.30 L 413.10 460.70 L 410.30 464.40 L 405.70 472.30 L 403.90 476.60 L 402.50 481.00 L 401.50 485.60 L 400.80 490.20 L 400.60 495.00 L 400.90 500.30 L 395.20 502.60 L 390.00 505.50 L 385.10 508.90 L 380.60 512.80 L 376.50 517.00 L 372.90 521.60 L 369.70 526.60 L 367.10 531.90 L 365.00 537.40 L 363.50 543.20 L 362.60 549.10 L 362.20 555.30 L 362.40 560.10 L 363.90 569.30 L 365.20 573.70 L 367.50 579.40 L 370.20 584.80 L 373.50 589.80 L 377.30 594.50 L 381.50 598.70 L 386.20 602.50 L 391.20 605.80 L 396.50 608.50 L 402.20 610.80 L 411.20 613.00 L 420.70 613.80 L 630.90 614.10 L 637.00 613.80 L 642.90 613.10 L 648.60 611.90 L 654.20 610.30 L 659.60 608.30 L 664.80 605.90 L 669.70 603.10 L 674.40 599.90 L 678.80 596.40 L 682.90 592.50 L 686.80 588.40 L 690.30 584.00 L 693.50 579.30 L 696.30 574.30 L 698.70 569.20 L 700.70 563.80 L 702.40 558.20 L 703.50 552.50 L 704.20 546.60 L 704.50 540.50 L 704.20 534.40 L 703.50 528.40 L 702.30 522.60 L 700.60 517.00 L 698.50 511.50 L 696.00 506.30 L 693.10 501.20 L 689.80 496.50 L 686.20 491.90 L 682.20 487.70 L 677.90 483.90 L 673.20 480.30 L 668.30 477.10 L 663.10 474.30 L 657.60 471.90 L 651.80 469.90 Z" fill="#ffffff" fill-rule="nonzero" node-id="366" stroke="#0c0426" stroke-linecap="butt" stroke-width="1" target-height="219.99997" target-width="342.3" target-x="362.2" target-y="394.1"></path><path d="M 671.70 481.40 L 670.20 474.00 L 668.20 466.90 L 665.70 460.20 L 662.60 453.60 L 659.00 447.40 L 654.90 441.50 L 650.50 436.00 L 645.60 430.80 L 640.20 426.00 L 634.60 421.70 L 628.60 417.90 L 622.20 414.40 L 615.60 411.60 L 608.80 409.20 L 601.60 407.40 L 594.20 406.20 L 586.70 405.60 L 579.30 405.60 L 572.10 406.20 L 565.00 407.40 L 558.00 409.10 L 551.20 411.40 L 544.70 414.20 L 538.40 417.50 L 532.30 421.40 L 526.70 425.60 L 521.30 430.40 L 516.30 435.60 L 511.70 441.10 L 507.60 447.10 L 503.90 453.50 L 500.70 460.30 L 496.50 458.10 L 492.20 456.30 L 487.70 454.90 L 483.20 453.90 L 474.00 453.10 L 464.80 453.80 L 460.30 454.80 L 455.90 456.20 L 451.50 458.00 L 447.30 460.20 L 443.20 462.80 L 439.50 465.60 L 436.10 468.80 L 433.00 472.20 L 430.20 475.90 L 425.60 483.80 L 423.80 488.10 L 422.40 492.50 L 421.40 497.00 L 420.70 501.70 L 420.50 506.50 L 420.80 511.70 L 415.10 514.10 L 409.90 517.00 L 405.00 520.40 L 400.50 524.20 L 396.40 528.50 L 392.80 533.10 L 389.60 538.10 L 387.00 543.30 L 384.90 548.90 L 383.40 554.60 L 382.50 560.60 L 382.10 566.70 L 382.30 571.60 L 383.80 580.80 L 385.10 585.20 L 387.30 590.90 L 390.10 596.30 L 393.40 601.30 L 397.20 605.90 L 401.40 610.10 L 406.10 613.90 L 411.10 617.20 L 416.40 620.00 L 422.10 622.20 L 431.10 624.40 L 440.60 625.20 L 650.80 625.60 L 656.90 625.30 L 662.80 624.60 L 668.50 623.40 L 674.10 621.80 L 679.50 619.80 L 684.60 617.30 L 689.60 614.50 L 694.30 611.40 L 698.70 607.80 L 702.80 604.00 L 706.70 599.90 L 710.20 595.40 L 713.40 590.70 L 716.20 585.80 L 718.60 580.70 L 720.60 575.30 L 722.20 569.70 L 723.40 564.00 L 724.10 558.10 L 724.40 552.00 L 724.10 545.90 L 723.40 539.90 L 722.20 534.10 L 720.60 528.50 L 718.40 523.00 L 715.90 517.80 L 713.10 512.70 L 709.80 507.90 L 706.10 503.40 L 702.10 499.20 L 697.80 495.30 L 693.10 491.80 L 688.20 488.60 L 683.00 485.80 L 677.50 483.40 L 671.70 481.40 Z" fill="#ffffff" fill-rule="nonzero" node-id="368" stroke="#0c0426" stroke-linecap="butt" stroke-width="1" target-height="219.99997" target-width="342.30002" target-x="382.1" target-y="405.6"></path><path d="M 441.90 544.70 L 441.90 504.70 L 487.40 501.00 L 487.40 544.70 L 441.90 544.70 Z" fill="#8c71ff" fill-rule="nonzero" node-id="370" stroke="none" target-height="43.700012" target-width="45.5" target-x="441.9" target-y="501"></path><path d="M 487.00 501.50 L 487.00 544.20 L 442.40 544.20 L 442.40 505.20 L 487.00 501.50 M 488.00 500.40 L 441.50 504.30 L 441.50 545.20 L 488.00 545.20 L 488.00 500.40 Z" fill="#0c0426" fill-rule="nonzero" node-id="372" stroke="none" target-height="44.80002" target-width="46.5" target-x="441.5" target-y="500.4"></path><path d="M 491.80 544.70 L 491.80 500.60 L 550.50 495.80 L 550.50 544.70 L 491.80 544.70 Z" fill="#8c71ff" fill-rule="nonzero" node-id="374" stroke="none" target-height="48.900024" target-width="58.700012" target-x="491.8" target-y="495.8"></path><path d="M 550.00 496.30 L 550.00 544.20 L 492.30 544.20 L 492.30 501.10 L 550.00 496.30 M 551.00 495.20 L 491.30 500.20 L 491.30 545.20 L 551.00 545.20 L 551.00 495.20 Z" fill="#0c0426" fill-rule="nonzero" node-id="376" stroke="none" target-height="50" target-width="59.700012" target-x="491.3" target-y="495.2"></path><path d="M 491.80 593.40 L 491.80 549.30 L 550.50 549.30 L 550.50 598.20 L 491.80 593.40 Z" fill="#8c71ff" fill-rule="nonzero" node-id="378" stroke="none" target-height="48.900024" target-width="58.700012" target-x="491.8" target-y="549.3"></path><path d="M 550.00 549.80 L 550.00 597.70 L 492.30 592.90 L 492.30 549.80 L 550.00 549.80 M 551.00 548.80 L 491.30 548.80 L 491.30 593.80 L 551.00 598.80 L 551.00 548.80 Z" fill="#0c0426" fill-rule="nonzero" node-id="380" stroke="none" target-height="50" target-width="59.700012" target-x="491.3" target-y="548.8"></path><path d="M 441.90 589.30 L 441.90 549.30 L 487.40 549.30 L 487.40 593.00 L 441.90 589.30 Z" fill="#8c71ff" fill-rule="nonzero" node-id="382" stroke="none" target-height="43.700012" target-width="45.5" target-x="441.9" target-y="549.3"></path><path d="M 487.00 549.80 L 487.00 592.50 L 442.50 588.80 L 442.50 549.80 L 487.00 549.80 M 488.00 548.80 L 441.40 548.80 L 441.40 589.80 L 488.00 593.60 L 488.00 548.80 Z" fill="#0c0426" fill-rule="nonzero" node-id="384" stroke="none" target-height="44.799988" target-width="46.600006" target-x="441.4" target-y="548.8"></path><path d="M 569.30 565.10 L 569.30 559.70 L 579.50 559.70 L 579.50 565.90 L 579.70 568.30 L 580.20 570.00 L 581.00 571.10 L 582.10 571.90 L 583.40 572.40 L 585.10 572.60 L 586.80 572.40 L 588.10 571.90 L 589.20 571.10 L 590.00 570.00 L 590.50 568.30 L 590.70 565.90 L 590.50 548.10 L 590.00 546.40 L 589.20 545.20 L 588.10 544.40 L 586.80 543.80 L 585.10 543.70 L 583.40 543.80 L 582.10 544.40 L 581.00 545.20 L 580.20 546.40 L 579.70 548.10 L 579.50 551.00 L 569.30 551.00 L 571.30 512.50 L 599.80 512.50 L 599.80 522.40 L 580.90 522.40 L 580.00 538.80 L 582.60 536.10 L 584.00 535.10 L 587.40 534.00 L 589.60 533.80 L 592.50 534.10 L 594.90 534.90 L 596.90 536.20 L 598.50 537.90 L 599.80 540.00 L 600.70 542.50 L 601.30 545.70 L 601.60 565.10 L 600.80 571.50 L 598.90 576.10 L 597.50 577.90 L 595.80 579.50 L 593.80 580.70 L 591.40 581.60 L 588.60 582.20 L 585.40 582.50 L 582.20 582.20 L 579.40 581.60 L 577.00 580.70 L 575.00 579.50 L 573.30 577.90 L 571.90 576.10 L 570.00 571.50 L 569.30 565.10 Z" fill="#0c0426" fill-rule="nonzero" node-id="386" stroke="none" target-height="70" target-width="32.299988" target-x="569.3" target-y="512.5"></path><path d="M 608.20 565.10 L 608.40 525.50 L 608.90 522.60 L 609.80 520.10 L 610.90 517.90 L 612.40 516.10 L 614.10 514.50 L 616.20 513.30 L 618.60 512.40 L 621.30 511.80 L 624.60 511.60 L 627.80 511.80 L 630.60 512.40 L 633.00 513.30 L 635.00 514.50 L 636.80 516.10 L 638.20 517.90 L 639.40 520.10 L 640.20 522.60 L 640.80 525.50 L 641.00 565.10 L 640.80 568.50 L 640.20 571.40 L 639.40 573.90 L 638.20 576.10 L 636.80 577.90 L 635.00 579.50 L 633.00 580.70 L 630.60 581.60 L 627.80 582.20 L 624.60 582.50 L 621.30 582.20 L 618.50 581.60 L 616.20 580.70 L 614.10 579.50 L 612.40 577.90 L 610.90 576.10 L 609.80 573.90 L 608.90 571.40 L 608.40 568.50 L 608.20 565.10 Z M 630.20 565.80 L 630.20 528.20 L 630.00 525.80 L 629.50 524.10 L 628.70 523.00 L 627.60 522.10 L 626.30 521.60 L 622.90 521.60 L 621.60 522.10 L 620.50 523.00 L 619.70 524.10 L 619.20 525.80 L 619.00 528.20 L 619.00 565.80 L 619.20 568.20 L 619.70 569.90 L 620.50 571.10 L 621.60 571.90 L 622.90 572.40 L 626.30 572.40 L 627.60 571.90 L 628.70 571.10 L 629.50 569.90 L 630.00 568.20 L 630.20 565.80 Z" fill="#0c0426" fill-rule="nonzero" node-id="388" stroke="none" target-height="70.899994" target-width="32.799988" target-x="608.2" target-y="511.6"></path><path d="M 648.00 565.10 L 648.00 559.70 L 658.20 559.70 L 658.20 565.90 L 658.50 568.30 L 659.00 570.00 L 659.80 571.10 L 660.80 571.90 L 662.20 572.40 L 663.90 572.60 L 665.50 572.40 L 666.90 571.90 L 667.90 571.10 L 668.70 570.00 L 669.20 568.30 L 669.50 565.90 L 669.20 548.10 L 668.70 546.40 L 667.90 545.20 L 666.90 544.40 L 665.50 543.80 L 663.90 543.70 L 662.20 543.80 L 660.80 544.40 L 659.80 545.20 L 659.00 546.40 L 658.50 548.10 L 658.20 551.00 L 648.00 551.00 L 650.00 512.50 L 678.60 512.50 L 678.60 522.40 L 659.60 522.40 L 658.80 538.80 L 661.30 536.00 L 662.70 535.10 L 666.20 533.90 L 668.30 533.80 L 671.20 534.10 L 673.70 534.90 L 675.70 536.10 L 677.30 537.90 L 678.50 539.90 L 679.50 542.50 L 680.10 545.60 L 680.30 565.10 L 679.60 571.40 L 677.60 576.10 L 676.20 577.90 L 674.50 579.40 L 672.50 580.70 L 670.20 581.60 L 667.40 582.20 L 664.20 582.40 L 660.90 582.20 L 658.10 581.60 L 655.80 580.70 L 653.80 579.50 L 652.10 577.90 L 650.70 576.10 L 649.60 573.90 L 648.70 571.40 L 648.00 565.10 Z" fill="#0c0426" fill-rule="nonzero" node-id="390" stroke="none" target-height="69.900024" target-width="32.299988" target-x="648" target-y="512.5"></path><path d="M 419.00 643.10 L 419.00 648.60 L 425.40 648.60 L 425.40 643.10 L 427.10 643.10 L 427.10 656.30 L 425.40 656.30 L 425.40 650.10 L 419.00 650.10 L 419.00 656.30 L 417.30 656.30 L 417.30 643.10 Z" fill="#0c0426" fill-rule="nonzero" node-id="392" stroke="none" target-height="13.200012" target-width="9.800018" target-x="417.3" target-y="643.1"></path><path d="M 432.50 644.60 L 428.50 644.60 L 428.50 643.10 L 438.30 643.10 L 438.30 644.60 L 434.30 644.60 L 434.30 656.30 L 432.50 656.30 Z" fill="#0c0426" fill-rule="nonzero" node-id="394" stroke="none" target-height="13.200012" target-width="9.799988" target-x="428.5" target-y="643.1"></path><path d="M 443.00 644.60 L 439.00 644.60 L 439.00 643.10 L 448.70 643.10 L 448.70 644.60 L 444.70 644.60 L 444.70 656.30 L 443.00 656.30 Z" fill="#0c0426" fill-rule="nonzero" node-id="396" stroke="none" target-height="13.200012" target-width="9.700012" target-x="439" target-y="643.1"></path><path d="M 450.10 643.30 L 453.40 643.00 L 455.90 643.40 L 457.10 644.10 L 457.70 644.90 L 458.20 646.90 L 458.00 648.40 L 457.20 649.70 L 456.00 650.50 L 454.70 651.00 L 451.90 651.00 L 451.90 656.30 L 450.20 656.30 Z M 451.80 649.60 L 454.60 649.50 L 455.60 649.00 L 456.30 648.20 L 456.50 646.90 L 456.30 645.70 L 455.70 645.00 L 454.70 644.50 L 451.80 644.50 Z" fill="#0c0426" fill-rule="nonzero" node-id="398" stroke="none" target-height="13.299988" target-width="8.100006" target-x="450.1" target-y="643"></path><path d="M 466.80 656.30 L 462.50 643.10 L 464.40 643.10 L 467.80 654.50 L 471.50 643.10 L 473.30 643.10 L 468.60 656.30 Z" fill="#0c0426" fill-rule="nonzero" node-id="400" stroke="none" target-height="13.200012" target-width="10.799988" target-x="462.5" target-y="643.1"></path><path d="M 481.60 650.10 L 476.50 650.10 L 476.50 654.80 L 482.20 654.80 L 482.20 656.30 L 474.80 656.30 L 474.80 643.10 L 481.90 643.10 L 481.90 644.50 L 476.50 644.50 L 476.50 648.70 L 481.60 648.70 Z" fill="#0c0426" fill-rule="nonzero" node-id="402" stroke="none" target-height="13.200012" target-width="7.4000244" target-x="474.8" target-y="643.1"></path><path d="M 484.40 643.30 L 489.00 643.10 L 491.40 644.10 L 492.20 645.20 L 492.30 647.70 L 491.00 649.40 L 490.00 649.90 L 490.70 650.40 L 491.70 651.70 L 492.90 656.20 L 491.10 656.20 L 489.90 651.80 L 488.70 650.70 L 487.60 650.50 L 486.00 650.50 L 486.00 656.20 L 484.30 656.20 Z M 486.10 649.30 L 489.10 649.10 L 490.00 648.60 L 490.60 647.80 L 490.80 646.80 L 490.60 645.70 L 490.00 644.90 L 487.80 644.40 L 486.10 644.50 Z" fill="#0c0426" fill-rule="nonzero" node-id="404" stroke="none" target-height="13.100037" target-width="8.600006" target-x="484.3" target-y="643.1"></path><path d="M 494.60 654.20 L 496.10 654.80 L 497.60 655.00 L 498.80 654.90 L 500.20 653.70 L 500.40 652.80 L 499.80 651.30 L 495.40 648.70 L 494.70 647.70 L 494.40 646.50 L 494.70 645.00 L 495.60 643.90 L 496.90 643.20 L 498.70 642.90 L 501.60 643.60 L 501.10 644.90 L 498.60 644.30 L 497.40 644.50 L 496.30 645.60 L 496.30 647.10 L 497.50 648.30 L 500.30 649.60 L 501.30 650.40 L 501.90 651.40 L 502.10 652.70 L 501.80 654.10 L 501.00 655.30 L 499.00 656.30 L 495.80 656.30 L 494.20 655.60 Z" fill="#0c0426" fill-rule="nonzero" node-id="406" stroke="none" target-height="13.399963" target-width="7.899994" target-x="494.2" target-y="642.9"></path><path d="M 506.20 643.10 L 506.20 656.30 L 504.50 656.30 L 504.50 643.10 Z" fill="#0c0426" fill-rule="nonzero" node-id="408" stroke="none" target-height="13.200012" target-width="1.7000122" target-x="504.5" target-y="643.1"></path><path d="M 520.30 649.60 L 520.10 651.80 L 519.50 653.40 L 518.50 654.70 L 517.30 655.70 L 515.90 656.30 L 514.20 656.50 L 512.60 656.20 L 511.20 655.60 L 510.00 654.60 L 509.10 653.30 L 508.60 651.80 L 508.30 649.80 L 508.60 647.80 L 509.20 646.10 L 510.10 644.80 L 511.30 643.80 L 512.70 643.10 L 514.40 642.90 L 516.10 643.10 L 517.50 643.80 L 518.70 644.80 L 519.60 646.10 L 520.10 647.60 L 520.30 649.60 Z M 510.10 649.80 L 510.40 651.80 L 511.20 653.50 L 513.10 654.90 L 514.30 655.10 L 515.60 654.90 L 517.40 653.50 L 518.20 651.80 L 518.50 649.60 L 518.30 647.70 L 517.50 646.00 L 515.70 644.50 L 514.40 644.30 L 513.00 644.50 L 511.20 645.90 L 510.40 647.70 L 510.10 649.80 Z" fill="#0c0426" fill-rule="nonzero" node-id="410" stroke="none" target-height="13.599976" target-width="12" target-x="508.3" target-y="642.9"></path><path d="M 522.50 656.30 L 522.50 643.10 L 524.40 643.10 L 530.90 654.00 L 530.70 643.10 L 532.30 643.10 L 532.30 656.30 L 530.60 656.30 L 524.00 645.20 L 524.10 656.20 Z" fill="#0c0426" fill-rule="nonzero" node-id="412" stroke="none" target-height="13.200012" target-width="9.799988" target-x="522.5" target-y="643.1"></path><path d="M 539.50 656.30 L 539.50 643.10 L 541.30 643.10 L 547.90 654.00 L 547.70 643.10 L 549.30 643.10 L 549.30 656.30 L 547.60 656.30 L 541.00 645.20 L 541.10 656.20 Z" fill="#0c0426" fill-rule="nonzero" node-id="414" stroke="none" target-height="13.200012" target-width="9.799988" target-x="539.5" target-y="643.1"></path><path d="M 563.50 649.60 L 563.20 651.80 L 562.60 653.40 L 561.70 654.70 L 560.50 655.70 L 559.00 656.30 L 557.40 656.50 L 555.80 656.20 L 554.40 655.60 L 553.20 654.60 L 552.30 653.30 L 551.70 651.80 L 551.50 649.80 L 551.70 647.80 L 552.30 646.10 L 553.20 644.80 L 554.50 643.80 L 555.90 643.10 L 557.60 642.90 L 559.30 643.10 L 560.70 643.80 L 561.90 644.80 L 563.30 647.60 L 563.50 649.60 Z M 553.30 649.80 L 553.60 651.80 L 554.40 653.50 L 556.20 654.90 L 557.50 655.10 L 558.80 654.90 L 560.60 653.50 L 561.40 651.80 L 561.70 649.60 L 561.40 647.70 L 560.70 646.00 L 559.90 645.10 L 558.80 644.50 L 557.50 644.30 L 556.20 644.50 L 555.20 645.10 L 554.40 645.90 L 553.60 647.70 L 553.30 649.80 Z" fill="#0c0426" fill-rule="nonzero" node-id="416" stroke="none" target-height="13.599976" target-width="12" target-x="551.5" target-y="642.9"></path><path d="M 567.70 644.60 L 563.70 644.60 L 563.70 643.10 L 573.40 643.10 L 573.40 644.60 L 569.40 644.60 L 569.40 656.30 L 567.70 656.30 Z" fill="#0c0426" fill-rule="nonzero" node-id="418" stroke="none" target-height="13.200012" target-width="9.700012" target-x="563.7" target-y="643.1"></path><path d="M 578.80 654.20 L 580.20 654.80 L 581.80 655.00 L 583.00 654.90 L 584.30 653.70 L 584.50 652.80 L 584.00 651.30 L 579.50 648.70 L 578.80 647.70 L 578.60 646.50 L 578.90 645.00 L 579.80 643.90 L 581.00 643.20 L 582.80 642.90 L 585.70 643.60 L 585.30 644.90 L 582.80 644.30 L 581.60 644.50 L 580.40 645.60 L 580.50 647.10 L 581.70 648.30 L 584.40 649.60 L 585.40 650.40 L 586.00 651.40 L 586.30 652.70 L 586.00 654.10 L 585.10 655.30 L 583.20 656.30 L 579.90 656.30 L 578.30 655.60 Z" fill="#0c0426" fill-rule="nonzero" node-id="420" stroke="none" target-height="13.399963" target-width="8" target-x="578.3" target-y="642.9"></path><path d="M 590.30 643.10 L 590.30 650.90 L 590.60 652.90 L 591.20 654.10 L 592.20 654.80 L 593.40 655.10 L 594.70 654.80 L 595.70 654.10 L 596.30 652.90 L 596.60 643.10 L 598.30 643.10 L 598.30 650.80 L 597.60 654.10 L 595.90 655.90 L 593.30 656.50 L 590.90 655.90 L 589.20 654.20 L 588.60 650.90 L 588.60 643.10 Z" fill="#0c0426" fill-rule="nonzero" node-id="422" stroke="none" target-height="13.400024" target-width="9.700012" target-x="588.6" target-y="643.1"></path><path d="M 601.20 643.30 L 604.50 643.00 L 607.00 643.40 L 608.20 644.10 L 608.80 644.90 L 609.30 646.90 L 609.10 648.40 L 608.30 649.70 L 607.10 650.50 L 605.80 651.00 L 602.90 651.00 L 602.90 656.30 L 601.30 656.30 Z M 602.90 649.60 L 605.70 649.50 L 606.70 649.00 L 607.40 648.20 L 607.60 646.90 L 607.40 645.70 L 606.80 645.00 L 604.50 644.40 L 602.90 644.50 Z" fill="#0c0426" fill-rule="nonzero" node-id="424" stroke="none" target-height="13.299988" target-width="8.099976" target-x="601.2" target-y="643"></path><path d="M 611.60 643.30 L 614.80 643.00 L 617.40 643.40 L 618.50 644.10 L 619.20 644.90 L 619.70 646.90 L 619.40 648.40 L 618.70 649.70 L 617.50 650.50 L 616.10 651.00 L 613.30 651.00 L 613.30 656.30 L 611.60 656.30 Z M 613.30 649.60 L 616.10 649.50 L 617.10 649.00 L 617.70 648.20 L 618.00 646.90 L 617.70 645.70 L 617.10 645.00 L 614.90 644.40 L 613.30 644.50 Z" fill="#0c0426" fill-rule="nonzero" node-id="426" stroke="none" target-height="13.299988" target-width="8.100037" target-x="611.6" target-y="643"></path><path d="M 633.20 649.60 L 632.90 651.80 L 632.30 653.40 L 631.40 654.70 L 630.10 655.70 L 628.70 656.30 L 627.10 656.50 L 625.40 656.20 L 624.00 655.60 L 622.90 654.60 L 622.00 653.30 L 621.40 651.80 L 621.20 649.80 L 621.40 647.80 L 622.00 646.10 L 622.90 644.80 L 624.10 643.80 L 625.50 643.10 L 627.30 642.90 L 628.90 643.10 L 630.30 643.80 L 631.50 644.80 L 632.40 646.10 L 632.90 647.60 L 633.20 649.60 Z M 623.00 649.80 L 623.30 651.80 L 624.10 653.50 L 625.90 654.90 L 627.20 655.10 L 628.40 654.90 L 630.30 653.50 L 631.10 651.80 L 631.40 649.60 L 631.10 647.70 L 630.30 646.00 L 629.50 645.10 L 628.50 644.50 L 627.20 644.30 L 625.80 644.50 L 624.80 645.10 L 624.00 645.90 L 623.30 647.60 L 623.00 649.80 Z" fill="#0c0426" fill-rule="nonzero" node-id="428" stroke="none" target-height="13.599976" target-width="12" target-x="621.2" target-y="642.9"></path><path d="M 635.40 643.30 L 640.00 643.10 L 642.40 644.10 L 643.20 645.20 L 643.20 647.70 L 641.90 649.40 L 640.90 649.90 L 641.70 650.40 L 642.60 651.70 L 643.90 656.20 L 642.10 656.20 L 640.80 651.80 L 639.60 650.70 L 638.60 650.50 L 637.00 650.50 L 637.00 656.20 L 635.30 656.20 Z M 637.10 649.30 L 640.10 649.10 L 641.00 648.60 L 641.60 647.80 L 641.80 646.80 L 641.50 645.70 L 640.90 644.90 L 638.80 644.40 L 637.10 644.50 Z" fill="#0c0426" fill-rule="nonzero" node-id="430" stroke="none" target-height="13.100037" target-width="8.600037" target-x="635.3" target-y="643.1"></path><path d="M 648.50 644.60 L 644.50 644.60 L 644.50 643.10 L 654.20 643.10 L 654.20 644.60 L 650.20 644.60 L 650.20 656.30 L 648.50 656.30 Z" fill="#0c0426" fill-rule="nonzero" node-id="432" stroke="none" target-height="13.200012" target-width="9.700012" target-x="644.5" target-y="643.1"></path><path d="M 662.50 650.10 L 657.40 650.10 L 657.40 654.80 L 663.10 654.80 L 663.10 656.30 L 655.70 656.30 L 655.70 643.10 L 662.80 643.10 L 662.80 644.50 L 657.40 644.50 L 657.40 648.70 L 662.50 648.70 Z" fill="#0c0426" fill-rule="nonzero" node-id="434" stroke="none" target-height="13.200012" target-width="7.3999634" target-x="655.7" target-y="643.1"></path><path d="M 665.30 643.30 L 668.90 643.00 L 671.20 643.20 L 672.90 643.80 L 675.00 645.70 L 676.00 648.10 L 676.00 649.40 L 676.00 650.80 L 675.00 653.40 L 674.10 654.50 L 672.80 655.50 L 670.90 656.10 L 668.30 656.40 L 665.30 656.20 Z M 667.00 654.90 L 670.50 654.80 L 672.90 653.60 L 674.10 651.20 L 674.30 649.40 L 673.70 646.70 L 672.00 645.00 L 669.00 644.40 L 667.00 644.50 Z" fill="#0c0426" fill-rule="nonzero" node-id="436" stroke="none" target-height="13.400024" target-width="10.700012" target-x="665.3" target-y="643"></path><path d="M 683.20 340.60 L 868.50 340.60 L 870.60 340.90 L 872.50 341.70 L 874.20 343.00 L 875.40 344.60 L 876.20 346.50 L 876.50 348.60 L 876.50 378.80 L 876.20 381.00 L 875.40 382.80 L 874.20 384.50 L 872.50 385.70 L 870.60 386.50 L 868.50 386.80 L 683.20 386.80 L 681.10 386.50 L 679.20 385.70 L 677.60 384.50 L 676.30 382.80 L 675.50 381.00 L 675.20 378.80 L 675.20 348.60 L 675.50 346.50 L 676.30 344.60 L 677.60 343.00 L 679.20 341.70 L 681.10 340.90 L 683.20 340.60 Z" fill="#ffffff" fill-rule="nonzero" node-id="438" stroke="#0c0426" stroke-linecap="butt" stroke-width="1" target-height="46.19998" target-width="201.29999" target-x="675.2" target-y="340.6"></path><path d="M 725.50 363.70 L 725.20 361.30 L 724.30 359.10 L 722.80 357.30 L 721.00 355.90 L 718.90 355.00 L 716.40 354.70 L 714.00 355.00 L 711.90 355.90 L 710.00 357.30 L 708.60 359.10 L 707.70 361.30 L 707.40 363.70 L 707.70 366.10 L 708.60 368.30 L 710.00 370.10 L 711.90 371.60 L 714.00 372.50 L 716.40 372.80 L 718.90 372.50 L 721.00 371.50 L 722.80 370.10 L 724.30 368.30 L 725.20 366.10 L 725.50 363.70 Z" fill="#ffffff" fill-rule="nonzero" node-id="440" stroke="#0c0426" stroke-linecap="round" stroke-width="1" target-height="18.099976" target-width="18.099976" target-x="707.4" target-y="354.7"></path><path d="M 735.50 363.70 L 780.10 363.70" fill="none" node-id="442" stroke="#0c0426" stroke-linecap="round" stroke-width="1" target-height="0" target-width="44.599976" target-x="735.5" target-y="363.7"></path><path d="M 796.60 363.70 L 841.20 363.70" fill="none" node-id="444" stroke="#0c0426" stroke-linecap="round" stroke-width="1" target-height="0" target-width="44.600037" target-x="796.6" target-y="363.7"></path><path d="M 676.00 196.50 L 676.00 190.20 L 671.00 190.20 L 669.50 185.70 L 668.20 183.60 L 671.80 180.00 L 667.50 175.60 L 663.90 179.20 L 661.80 178.00 L 657.40 176.50 L 657.40 171.40 L 651.20 171.40 L 651.20 176.50 L 648.90 177.10 L 644.70 179.20 L 641.00 175.60 L 636.70 180.00 L 640.20 183.60 L 639.00 185.70 L 637.50 190.20 L 632.50 190.20 L 632.50 196.50 L 637.50 196.50 L 638.10 198.80 L 640.20 203.10 L 636.70 206.70 L 641.00 211.10 L 644.60 207.50 L 646.70 208.70 L 651.10 210.20 L 651.10 215.40 L 657.30 215.40 L 657.30 210.20 L 659.60 209.60 L 663.80 207.50 L 667.40 211.10 L 671.80 206.70 L 668.20 203.10 L 670.30 198.80 L 670.90 196.50 Z M 654.30 204.30 L 652.00 204.10 L 650.00 203.50 L 648.10 202.50 L 646.40 201.20 L 645.10 199.60 L 644.00 197.60 L 643.30 195.50 L 643.10 193.40 L 643.30 191.30 L 643.90 189.20 L 644.80 187.30 L 646.20 185.60 L 648.00 184.20 L 649.80 183.20 L 651.90 182.50 L 654.00 182.30 L 656.10 182.50 L 658.20 183.10 L 660.20 184.20 L 661.90 185.50 L 663.20 187.20 L 664.20 189.10 L 664.90 191.10 L 665.10 193.30 L 664.90 195.50 L 664.30 197.50 L 663.30 199.40 L 661.90 201.10 L 660.30 202.40 L 658.40 203.40 L 656.40 204.10 L 654.20 204.30 Z" fill="#ffffff" fill-rule="nonzero" node-id="446" stroke="#0c0426" stroke-linecap="butt" stroke-width="1" target-height="44" target-width="43.5" target-x="632.5" target-y="171.4"></path><path d="M 691.90 247.70 L 691.90 242.80 L 688.00 242.80 L 687.20 240.20 L 685.90 237.70 L 688.70 234.90 L 685.30 231.50 L 682.60 234.30 L 680.20 233.00 L 677.60 232.20 L 677.60 228.20 L 672.90 228.20 L 672.90 232.20 L 670.20 233.00 L 667.90 234.30 L 665.10 231.50 L 661.80 234.90 L 664.50 237.70 L 663.20 240.20 L 662.40 242.80 L 658.60 242.80 L 658.60 247.70 L 662.40 247.70 L 663.20 250.30 L 664.50 252.80 L 661.80 255.60 L 665.10 259.00 L 667.90 256.20 L 670.20 257.50 L 672.90 258.30 L 672.90 262.20 L 677.60 262.20 L 677.60 258.30 L 680.20 257.50 L 682.60 256.20 L 685.30 259.00 L 688.70 255.60 L 686.00 252.80 L 687.30 250.30 L 688.10 247.70 Z M 675.20 253.70 L 671.90 253.10 L 669.20 251.30 L 667.30 248.60 L 666.80 247.00 L 666.70 243.70 L 667.90 240.70 L 670.30 238.20 L 673.30 236.90 L 676.60 236.90 L 679.80 238.20 L 682.10 240.50 L 683.40 243.50 L 683.50 245.20 L 683.20 247.50 L 682.40 249.50 L 681.10 251.20 L 679.40 252.50 L 677.50 253.40 L 675.20 253.70 Z" fill="#ffffff" fill-rule="nonzero" node-id="448" stroke="#0c0426" stroke-linecap="butt" stroke-width="1" target-height="34.000015" target-width="33.30005" target-x="658.6" target-y="228.2"></path></svg>